STARTFONT 2.1
COMMENT
COMMENT Converted from OpenType font "hyundai-led.ttf" by "otf2bdf 3.0".
COMMENT
FONT -FreeType-Hyundai LED-Medium-R-Normal--10-70-100-100-P-69-ISO10646-1
SIZE 7 100 100
FONTBOUNDINGBOX 8 11 0 0
STARTPROPERTIES 19
FOUNDRY "FreeType"
FAMILY_NAME "Hyundai LED"
WEIGHT_NAME "Medium"
SLANT "R"
SETWIDTH_NAME "Normal"
ADD_STYLE_NAME ""
PIXEL_SIZE 10
POINT_SIZE 70
RESOLUTION_X 100
RESOLUTION_Y 100
SPACING "P"
AVERAGE_WIDTH 69
CHARSET_REGISTRY "ISO10646"
CHARSET_ENCODING "1"
FONT_ASCENT 11
FONT_DESCENT 0
COPYRIGHT "Copyright Muhammad Evanalexander 2020"
_OTF_FONTFILE "hyundai-led.ttf"
_OTF_PSNAME "Hyundai-LED"
ENDPROPERTIES
CHARS 42
STARTCHAR 0020
ENCODING 32
SWIDTH 308 0
DWIDTH 3 0
BBX 0 0 0 0
BITMAP
ENDCHAR
STARTCHAR 002C
ENCODING 44
SWIDTH 925 0
DWIDTH 9 0
BBX 7 5 1 5
BITMAP
10
92
00
58
10
ENDCHAR
STARTCHAR 0030
ENCODING 48
SWIDTH 925 0
DWIDTH 9 0
BBX 7 10 1 0
BITMAP
58
00
82
82
00
82
82
82
00
58
ENDCHAR
STARTCHAR 0031
ENCODING 49
SWIDTH 720 0
DWIDTH 7 0
BBX 3 10 2 0
BITMAP
40
00
C0
40
00
40
40
40
00
E0
ENDCHAR
STARTCHAR 0032
ENCODING 50
SWIDTH 925 0
DWIDTH 9 0
BBX 7 10 1 0
BITMAP
58
00
82
02
00
18
40
80
00
DA
ENDCHAR
STARTCHAR 0033
ENCODING 51
SWIDTH 925 0
DWIDTH 9 0
BBX 7 10 1 0
BITMAP
58
00
82
02
00
18
02
82
00
58
ENDCHAR
STARTCHAR 0034
ENCODING 52
SWIDTH 925 0
DWIDTH 9 0
BBX 7 10 1 0
BITMAP
08
00
18
48
00
88
DA
08
00
08
ENDCHAR
STARTCHAR 0035
ENCODING 53
SWIDTH 925 0
DWIDTH 9 0
BBX 7 10 1 0
BITMAP
DA
00
80
80
00
D8
02
82
00
58
ENDCHAR
STARTCHAR 0036
ENCODING 54
SWIDTH 925 0
DWIDTH 9 0
BBX 7 10 1 0
BITMAP
58
00
82
80
00
D8
82
82
00
58
ENDCHAR
STARTCHAR 0037
ENCODING 55
SWIDTH 925 0
DWIDTH 9 0
BBX 7 10 1 0
BITMAP
DA
00
02
08
00
10
10
10
00
10
ENDCHAR
STARTCHAR 0038
ENCODING 56
SWIDTH 925 0
DWIDTH 9 0
BBX 7 10 1 0
BITMAP
58
00
82
82
00
58
82
82
00
58
ENDCHAR
STARTCHAR 0039
ENCODING 57
SWIDTH 925 0
DWIDTH 9 0
BBX 7 10 1 0
BITMAP
58
00
82
82
00
5A
02
82
00
58
ENDCHAR
STARTCHAR 003A
ENCODING 58
SWIDTH 514 0
DWIDTH 5 0
BBX 2 7 2 2
BITMAP
C0
00
C0
00
00
C0
C0
ENDCHAR
STARTCHAR 003C
ENCODING 60
SWIDTH 925 0
DWIDTH 9 0
BBX 7 9 1 2
BITMAP
10
58
92
00
10
10
00
10
10
ENDCHAR
STARTCHAR 003D
ENCODING 61
SWIDTH 925 0
DWIDTH 9 0
BBX 7 5 1 2
BITMAP
10
58
00
92
10
ENDCHAR
STARTCHAR 003E
ENCODING 62
SWIDTH 925 0
DWIDTH 9 0
BBX 7 9 1 2
BITMAP
10
10
10
00
10
92
00
58
10
ENDCHAR
STARTCHAR 0041
ENCODING 65
SWIDTH 925 0
DWIDTH 9 0
BBX 7 10 1 0
BITMAP
10
00
48
82
00
DA
82
82
00
82
ENDCHAR
STARTCHAR 0042
ENCODING 66
SWIDTH 925 0
DWIDTH 9 0
BBX 7 10 1 0
BITMAP
D8
00
82
82
00
D8
82
82
00
D8
ENDCHAR
STARTCHAR 0043
ENCODING 67
SWIDTH 925 0
DWIDTH 9 0
BBX 7 10 1 0
BITMAP
58
00
82
80
00
80
80
82
00
58
ENDCHAR
STARTCHAR 0044
ENCODING 68
SWIDTH 925 0
DWIDTH 9 0
BBX 7 10 1 0
BITMAP
D8
00
82
82
00
82
82
82
00
D8
ENDCHAR
STARTCHAR 0045
ENCODING 69
SWIDTH 925 0
DWIDTH 9 0
BBX 7 10 1 0
BITMAP
DA
00
80
80
00
D8
80
80
00
DA
ENDCHAR
STARTCHAR 0046
ENCODING 70
SWIDTH 925 0
DWIDTH 9 0
BBX 7 10 1 0
BITMAP
DA
00
80
80
00
D8
80
80
00
80
ENDCHAR
STARTCHAR 0047
ENCODING 71
SWIDTH 925 0
DWIDTH 9 0
BBX 7 10 1 0
BITMAP
58
00
82
80
00
9A
88
58
00
08
ENDCHAR
STARTCHAR 0048
ENCODING 72
SWIDTH 925 0
DWIDTH 9 0
BBX 7 10 1 0
BITMAP
82
00
82
82
00
DA
82
82
00
82
ENDCHAR
STARTCHAR 0049
ENCODING 73
SWIDTH 720 0
DWIDTH 7 0
BBX 3 10 2 0
BITMAP
E0
00
40
40
00
40
40
40
00
E0
ENDCHAR
STARTCHAR 004A
ENCODING 74
SWIDTH 720 0
DWIDTH 7 0
BBX 5 10 1 0
BITMAP
58
00
08
08
00
08
08
88
00
50
ENDCHAR
STARTCHAR 004B
ENCODING 75
SWIDTH 925 0
DWIDTH 9 0
BBX 7 10 1 0
BITMAP
82
00
88
90
00
C0
90
88
00
82
ENDCHAR
STARTCHAR 004C
ENCODING 76
SWIDTH 925 0
DWIDTH 9 0
BBX 7 10 1 0
BITMAP
80
00
80
80
00
80
80
80
00
DA
ENDCHAR
STARTCHAR 004D
ENCODING 77
SWIDTH 925 0
DWIDTH 9 0
BBX 7 10 1 0
BITMAP
82
00
CA
92
00
82
82
82
00
82
ENDCHAR
STARTCHAR 004E
ENCODING 78
SWIDTH 925 0
DWIDTH 9 0
BBX 7 10 1 0
BITMAP
82
00
C2
92
00
8A
82
82
00
82
ENDCHAR
STARTCHAR 004F
ENCODING 79
SWIDTH 925 0
DWIDTH 9 0
BBX 7 10 1 0
BITMAP
58
00
82
82
00
82
82
82
00
58
ENDCHAR
STARTCHAR 0050
ENCODING 80
SWIDTH 925 0
DWIDTH 9 0
BBX 7 10 1 0
BITMAP
D8
00
82
82
00
D8
80
80
00
80
ENDCHAR
STARTCHAR 0051
ENCODING 81
SWIDTH 925 0
DWIDTH 9 0
BBX 7 10 1 0
BITMAP
58
00
82
82
00
82
82
88
00
52
ENDCHAR
STARTCHAR 0052
ENCODING 82
SWIDTH 925 0
DWIDTH 9 0
BBX 7 10 1 0
BITMAP
D8
00
82
82
00
D8
90
88
00
82
ENDCHAR
STARTCHAR 0053
ENCODING 83
SWIDTH 925 0
DWIDTH 9 0
BBX 7 10 1 0
BITMAP
58
00
82
80
00
58
02
82
00
58
ENDCHAR
STARTCHAR 0054
ENCODING 84
SWIDTH 925 0
DWIDTH 9 0
BBX 7 10 1 0
BITMAP
DA
00
10
10
00
10
10
10
00
10
ENDCHAR
STARTCHAR 0055
ENCODING 85
SWIDTH 925 0
DWIDTH 9 0
BBX 7 10 1 0
BITMAP
82
00
82
82
00
82
82
82
00
58
ENDCHAR
STARTCHAR 0056
ENCODING 86
SWIDTH 925 0
DWIDTH 9 0
BBX 7 10 1 0
BITMAP
82
00
82
82
00
82
82
48
00
10
ENDCHAR
STARTCHAR 0057
ENCODING 87
SWIDTH 925 0
DWIDTH 9 0
BBX 7 10 1 0
BITMAP
82
00
82
82
00
82
92
CA
00
82
ENDCHAR
STARTCHAR 0058
ENCODING 88
SWIDTH 925 0
DWIDTH 9 0
BBX 7 10 1 0
BITMAP
82
00
82
48
00
10
48
82
00
82
ENDCHAR
STARTCHAR 0059
ENCODING 89
SWIDTH 925 0
DWIDTH 9 0
BBX 7 10 1 0
BITMAP
82
00
82
48
00
10
10
10
00
10
ENDCHAR
STARTCHAR 005A
ENCODING 90
SWIDTH 925 0
DWIDTH 9 0
BBX 7 10 1 0
BITMAP
DA
00
02
08
00
10
40
80
00
DA
ENDCHAR
ENDFONT
